<svg xmlns="http://www.w3.org/2000/svg" viewBox="0 0 64 64" fill="none">
  <rect width="64" height="64" rx="18" fill="#F7F5EF"/>
  <rect x="11" y="18" width="18" height="28" rx="7" fill="#111111" transform="rotate(-10 11 18)"/>
  <rect x="24" y="10" width="18" height="30" rx="7" fill="#FFFFFF" stroke="#111111" stroke-opacity="0.14" transform="rotate(8 24 10)"/>
  <rect x="35" y="22" width="18" height="30" rx="7" fill="#1E56D8" transform="rotate(-4 35 22)"/>
  <path d="M18.5 34.2h3.4c2.3 0 3.7-1.2 3.7-3.1 0-1.2-.7-2.1-1.9-2.4 1-.4 1.6-1.2 1.6-2.3 0-1.8-1.3-2.9-3.6-2.9h-3.2v10.7Zm2.1-6.3v-2.6h1c1 0 1.5.4 1.5 1.3 0 .9-.5 1.3-1.5 1.3h-1Zm0 4.4v-2.8h1.2c1 0 1.6.5 1.6 1.4 0 .9-.6 1.4-1.6 1.4h-1.2Z" fill="#ffffff"/>
  <path d="M30.6 23.4c0-.8.6-1.4 1.4-1.4.8 0 1.4.6 1.4 1.4 0 .8-.6 1.4-1.4 1.4-.8 0-1.4-.6-1.4-1.4Zm.3 2.6h2.2v8.2h-2.2V26Z" fill="#111111"/>
  <path d="M41.3 33.3h-2.2V24h2.2v3.6c.6-.9 1.4-1.3 2.5-1.3 2 0 3.4 1.5 3.4 3.9 0 2.4-1.4 3.9-3.4 3.9-1.1 0-1.9-.4-2.5-1.3v.5Zm0-3.3c0 1.3.7 2.1 1.8 2.1 1.1 0 1.8-.8 1.8-2.1 0-1.3-.7-2.1-1.8-2.1-1.1 0-1.8.8-1.8 2.1Z" fill="#ffffff"/>
</svg>
